<?xml version="1.0" standalone="no"?><!DOCTYPE svg PUBLIC "-//W3C//DTD SVG 1.1//EN" "http://www.w3.org/Graphics/SVG/1.1/DTD/svg11.dtd"><svg t="1659509403010" class="icon" viewBox="0 0 1024 1024" version="1.1" xmlns="http://www.w3.org/2000/svg" p-id="24138" xmlns:xlink="http://www.w3.org/1999/xlink" width="200" height="200"><defs><style type="text/css"></style></defs><path d="M919.495111 890.595556l83.683556 73.272888a28.444444 28.444444 0 0 1 0 37.546667c-15.416889 18.716444-37.717333 4.209778-39.196445 2.730667l-82.318222-72.078222a236.942222 236.942222 0 0 1-156.273778 58.88c-133.575111 0-241.777778-111.274667-241.777778-248.490667 0-137.329778 108.259556-248.604444 241.777778-248.604445 133.461333 0 241.720889 111.274667 241.720889 248.604445a252.017778 252.017778 0 0 1-47.616 148.138667zM725.333333 552.277333c-102.172444 0-184.888889 85.219556-184.888889 190.179556 0 104.903111 82.716444 190.008889 184.888889 190.008889 102.058667 0 184.832-85.105778 184.832-190.008889 0-104.96-82.773333-190.179556-184.888889-190.179556z m116.792889-138.24v-204.8c0-60.700444-58.368-88.689778-86.016-88.689777h-494.933333c-38.798222 0-79.018667 39.424-86.072889 112.64v581.575111c0 91.022222 64.284444 88.746667 86.072889 88.746666H439.182222a31.288889 31.288889 0 0 1 30.72 31.857778 31.288889 31.288889 0 0 1-30.72 31.744H256.568889C203.548444 967.111111 113.777778 932.977778 113.777778 843.491556V228.352C113.777778 108.088889 186.936889 56.888889 256.568889 56.888889h504.206222c78.506667 0 142.848 50.517333 142.848 147.512889v209.806222a31.402667 31.402667 0 0 1-30.72 31.687111 31.345778 31.345778 0 0 1-30.72-31.857778zM312.888889 232.334222h398.222222a28.444444 28.444444 0 0 1 28.444445 28.444445v1.592889a28.444444 28.444444 0 0 1-28.444445 28.444444h-398.222222a28.444444 28.444444 0 0 1-28.444445-28.444444v-1.592889a28.444444 28.444444 0 0 1 28.444445-28.444445z m0 170.666667h170.666667a28.444444 28.444444 0 0 1 28.444444 28.444444v1.592889a28.444444 28.444444 0 0 1-28.444444 28.444445h-170.666667a28.444444 28.444444 0 0 1-28.444445-28.444445v-1.592889a28.444444 28.444444 0 0 1 28.444445-28.444444z" fill="#13227a" p-id="24139"></path></svg>