<?xml version="1.0" standalone="no"?><!DOCTYPE svg PUBLIC "-//W3C//DTD SVG 1.1//EN" "http://www.w3.org/Graphics/SVG/1.1/DTD/svg11.dtd"><svg t="1659509294125" class="icon" viewBox="0 0 1024 1024" version="1.1" xmlns="http://www.w3.org/2000/svg" p-id="20998" xmlns:xlink="http://www.w3.org/1999/xlink" width="200" height="200"><defs><style type="text/css"></style></defs><path d="M512 408c-4 0-8-1.5-11.1-4.5l-101.4-97.7L297.6 396c-6.6 5.9-16.7 5.2-22.6-1.4-5.9-6.6-5.2-16.7 1.4-22.6l113-100c6.2-5.5 15.7-5.3 21.7 0.5l102.3 98.7 213.1-156c7.1-5.2 17.2-3.7 22.4 3.5 5.2 7.1 3.7 17.1-3.5 22.4l-224 164a16.8 16.8 0 0 1-9.4 2.9z" fill="#0F82E4" p-id="20999"></path><path d="M880 128H144c-44.1 0-80 35.9-80 80v464c0 44.1 35.9 80 80 80h352v64.4c-121.5 3.7-197 48-200.2 49.9-7.6 4.5-10 14.3-5.5 21.9 4.5 7.6 14.3 10 21.9 5.5 0.8-0.4 78.3-45.7 199.8-45.7s199 45.3 199.8 45.7c2.6 1.5 5.4 2.2 8.2 2.2 5.5 0 10.8-2.8 13.8-7.8 4.5-7.6 2.1-17.4-5.5-21.9-3.3-2-78.7-46.2-200.2-49.9V752h352c44.1 0 80-35.9 80-80V208c-0.1-44.1-36-80-80.1-80z m-736 32h736c26.5 0 48 21.5 48 48v400H96V208c0-26.5 21.5-48 48-48z m736 560H144c-26.5 0-48-21.5-48-48v-32h832v32c0 26.5-21.5 48-48 48z" fill="#333333" p-id="21000"></path><path d="M288 544c-8.8 0-16-7.2-16-16v-32c0-8.8 7.2-16 16-16s16 7.2 16 16v32c0 8.8-7.2 16-16 16zM512 544c-8.8 0-16-7.2-16-16v-64c0-8.8 7.2-16 16-16s16 7.2 16 16v64c0 8.8-7.2 16-16 16zM736 544c-8.8 0-16-7.2-16-16V368c0-8.8 7.2-16 16-16s16 7.2 16 16v160c0 8.8-7.2 16-16 16zM400 544c-8.8 0-16-7.2-16-16V416c0-8.8 7.2-16 16-16s16 7.2 16 16v112c0 8.8-7.2 16-16 16zM624 544c-8.8 0-16-7.2-16-16v-80c0-8.8 7.2-16 16-16s16 7.2 16 16v80c0 8.8-7.2 16-16 16z" fill="#333333" p-id="21001"></path></svg>